<?xml version="1.0" standalone="no"?>
<!DOCTYPE svg PUBLIC "-//W3C//DTD SVG 20010904//EN"
 "http://www.w3.org/TR/2001/REC-SVG-20010904/DTD/svg10.dtd">
<svg version="1.0" xmlns="http://www.w3.org/2000/svg"
 width="32.000000pt" height="32.000000pt" viewBox="0 0 32.000000 32.000000"
 preserveAspectRatio="xMidYMid meet">

<g transform="translate(0.000000,32.000000) scale(0.100000,-0.100000)"
fill="#000000" stroke="none">
<path d="M0 160 l0 -160 160 0 160 0 0 160 0 160 -160 0 -160 0 0 -160z m196
88 c4 -6 10 -5 16 3 8 11 9 10 4 -3 -3 -10 -1 -20 3 -23 15 -8 11 -88 -6 -116
-14 -23 -60 -59 -77 -59 -4 0 -15 20 -26 45 -16 38 -17 49 -7 65 6 11 15 20
20 20 4 0 0 -12 -10 -27 l-17 -28 24 20 24 20 -18 -30 -19 -30 25 23 c36 33
46 27 13 -8 -16 -16 -27 -31 -24 -33 2 -2 19 14 38 35 27 31 30 38 15 38 -9 0
-26 7 -36 16 -14 14 -20 14 -33 4 -13 -10 -15 -9 -15 7 0 10 7 28 15 39 14 19
14 19 15 -1 0 -12 3 -16 8 -9 4 6 14 14 22 17 12 4 12 6 -2 6 -33 2 -26 17 8
18 19 1 37 -4 40 -9z"/>
<path d="M163 223 c-19 -7 -15 -33 5 -33 13 0 14 2 3 9 -8 5 -9 11 -3 15 14 8
25 -10 28 -47 1 -21 -8 -40 -34 -71 l-36 -41 36 34 c38 35 66 91 46 91 -7 0
-6 5 2 15 7 8 10 16 6 16 -3 1 -9 2 -13 3 -5 1 -12 4 -18 7 -5 4 -16 4 -22 2z"/>
</g>
</svg>
